<?xml version="1.0" encoding="utf-8"?>
<!-- Generator: Adobe Illustrator 24.2.1, SVG Export Plug-In . SVG Version: 6.00 Build 0)  -->
<svg version="1.1" id="Layer_1" xmlns="http://www.w3.org/2000/svg" xmlns:xlink="http://www.w3.org/1999/xlink" x="0px" y="0px"
	 viewBox="0 0 458 51.7" style="enable-background:new 0 0 458 51.7;" xml:space="preserve">
<style type="text/css">
	.st0{fill:#2E2E2D;}
	.st1{fill:#1D1B17;}
	.st2{fill:#1A5526;}
	.st3{fill:#1DA15E;}
	.st4{fill:#29893F;}
	.st5{fill:#1D1D1A;}
</style>
<g id="Group_664">
	<path id="Path_598" class="st0" d="M35.4,23.7c0.9,0,1.7,0.2,2.5,0.6c2.4,0.6,4.7,1.3,7,1.9c2.1,0.4,3.7,1.9,4.4,3.9
		c0.1,0.2,0.2,0.4,0.3,0.6c0,1,0.1,1.9,0,2.9c0,1.3-1.1,2.4-2.4,2.4c-0.7,0-1.4-0.3-1.9-0.9c-2.8-3.3-5.7-6.7-8.5-10
		C36.4,24.6,35.9,24.1,35.4,23.7"/>
	<path id="Path_599" class="st1" d="M27,21.5c-2-0.6-4-1.1-6-1.7c-1-0.2-1.8-1.1-1.8-2.1c-0.1-1,0.5-2,1.5-2.4
		C28,11.9,35.4,8.4,42.8,5c2.3-1.2,5.2-0.2,6.3,2.1c0.3,0.7,0.5,1.4,0.5,2.2c0,4.9,0,10,0,14.4c0,2.8,0,5.3-0.1,7.3c0,0,0,0.1,0,0.1
		c-0.1-0.2-0.2-0.4-0.3-0.6c-0.5-0.8-1-1.6-1.7-2.3c-0.8-0.7-1.7-1.3-2.7-1.6C41.5,25.2,29.7,22.3,27,21.5"/>
	<path id="Path_600" class="st1" d="M49.6,31.2l0-17.9l-1.5,13.6l0.9,3L49.6,31.2z"/>
	<path id="Path_601" class="st2" d="M19.1,28.1c-0.9,0-1.7-0.2-2.5-0.6c-2.4-0.6-4.7-1.3-7-1.9c-2.1-0.4-3.7-1.9-4.4-3.9
		C5.1,21.4,5,21.2,4.9,21c0-1-0.1-1.9,0-2.9c0-1.3,1.1-2.4,2.4-2.4c0.7,0,1.4,0.3,1.9,0.9c2.8,3.3,5.7,6.7,8.5,10
		C18.1,27.2,18.6,27.6,19.1,28.1"/>
	<path id="Path_602" class="st3" d="M27.5,30.2c2,0.6,4,1.1,6,1.7c1,0.2,1.8,1.1,1.8,2.1c0.1,1-0.5,2-1.5,2.4
		c-7.4,3.5-14.7,6.9-22.1,10.3C9.4,48,6.6,47,5.4,44.7C5,44,4.9,43.3,4.9,42.5c0-4.9,0-10,0-14.4c0-2.8,0.1-5.3,0.1-7.3
		c0,0,0-0.1,0-0.1c0.1,0.2,0.2,0.4,0.3,0.6c0.5,0.8,1,1.6,1.7,2.3c0.8,0.7,1.7,1.3,2.7,1.6C13,26.5,24.8,29.4,27.5,30.2"/>
	<path id="Path_603" class="st4" d="M4.9,20.5l0,17.9l1.5-13.6l-0.9-3L4.9,20.5z"/>
</g>
<g id="Group_665" transform="translate(40.503 4.269)">
	<path id="Path_604" class="st3" d="M36.4,7.1H60c8.9,0,13.9,1.1,11.9,7.7c-1.2,3.8-3.1,6.3-9.2,7l-0.1,0.3c6.6,0.3,6.9,3,5.7,6.8
		c-2.3,7.4-7.7,8.4-17.3,8.4H27.2L36.4,7.1z M41.2,30.7h9.1c3.9,0,5.7-0.6,6.5-3.1c0.8-2.5-0.5-2.9-4.4-2.9H43L41.2,30.7z
		 M44.7,19.2h8.6c4.2,0,5.4-0.5,6.1-2.9c0.6-1.8,0.3-2.5-3-2.6H46.4L44.7,19.2z"/>
	<path id="Path_605" class="st3" d="M82.9,32.1l-3.8,5.2H66.6L89.3,7.1h18.2l4.4,30.2H99.8L99,32.1L82.9,32.1z M96.9,13.1h-0.1
		l-9.5,13.1h11.2L96.9,13.1z"/>
	<path id="Path_606" class="st3" d="M140.6,18.9c13.1,0.6,16.1,1.8,14,8.7c-1.5,5-2.7,9.9-22.5,9.9c-11.5,0-19-0.2-16-10.1h11.5
		c-1,3.1,0.6,3.5,6.5,3.5c5.6,0,7.6-0.2,8.4-2.8c0.8-2.6,0.1-2.6-5.4-2.8l-2.6-0.1c-10.9-0.5-17.4-0.5-14.8-9.1s10.1-9.2,21.9-9.2
		c9.8,0,18.2,0.1,15.7,8.5l-0.4,1.2h-11.5c0.9-3.1-1-3.1-5.8-3.1c-6.5,0-7.3,0.9-7.8,2.6c-0.7,2.4,1,2.5,4.1,2.7L140.6,18.9z"/>
	<path id="Path_607" class="st5" d="M236.8,7.1h12.1l-19.2,30.2h-17.3L212,18.4h-0.5l-12.3,18.9H182l-0.5-30.2h12.2l-0.6,23.3h0.4
		l15.6-23.3h12.5l0.9,23.3h0.4L236.8,7.1z"/>
	<path id="Path_608" class="st5" d="M243.9,26.5l2.6-8.5c2.8-9.3,12-11.1,24.2-11.1c12.2,0,20.3,1.8,17.4,11.1l-2.6,8.5
		c-2.8,9.3-12,11.1-24.2,11.1S241,35.8,243.9,26.5z M273.4,25.6l2.1-6.8c1.4-4.5-0.7-4.9-7-4.9c-6.2,0-8.4,0.4-10,4.9l-2.1,6.8
		c-1.2,4.5,0.7,5,6.9,5S272,30.1,273.4,25.6L273.4,25.6z"/>
	<path id="Path_609" class="st5" d="M296.3,7.1h23.2c10.3,0.1,15,1.6,12.7,9.1c-1.5,5-2.4,8-11.4,9.3l-0.1,0.3
		c4.9,0.1,7.5,1.9,6.5,5.4l-1.9,6.1h-12l1.3-4.2c0.8-2.3-0.2-3.8-3.8-3.8h-9.3l-2.5,8h-12L296.3,7.1z M313,22.3
		c5.2,0,5.4-1.3,6.4-4.7c0.8-2.7,0-3.5-3.9-3.5h-9.3l-2.5,8.2H313z"/>
	<path id="Path_610" class="st5" d="M345.3,30.3h18.8l-2.1,7h-30.8l9.2-30.2h12L345.3,30.3z"/>
	<path id="Path_611" class="st5" d="M374.6,7.1h22.8c12.5,0,17.2,3.1,14.5,11.7l-1.9,6.3c-2.5,8.3-7.7,12.2-20.2,12.2h-24.4
		L374.6,7.1z M379.5,30.3H390c4.4,0,6.7-2,7.6-5.2l1.9-6.3c1.2-3.9-0.4-4.7-4.6-4.7h-10.5L379.5,30.3z"/>
</g>
</svg>
